# xmcd
#
# Track frame offsets: 
#        150
#        13830
#        28265
#        40900
#        62270
#        74238
#        94328
#        118905
#        130250
#        143663
#        164545
#        177115
#        194325
#        210250
#        221405
#        265515
#        280378
#        293503
#        308470
#
# Disc length: 4559 seconds
#
# Revision: 1
# Processed by: cddbd v1.5.2PL0 Copyright (c) Steve Scherf et al.
# Submitted via: ExactAudioCopy v0.90b4
#
DISCID=1a11cd13
DTITLE=Various Artist - Revenge Of The Pusherman Bad Asssss Soul! [CD2]
DYEAR=2006
DGENRE=Soul
TTITLE0=Bill Doggett - Ko Ko
TTITLE1=Johnnie Taylor - Cheaper To Keep Her
TTITLE2=Bobby Womack - Nobody Wants You When You're Down And Out
TTITLE3=Staple Singers - Respect Yourself
TTITLE4=Jean Knight - Mr. Big Stuff
TTITLE5=Soul Searchers - Think
TTITLE6=Rasputin Stash - Hit It And Pass It
TTITLE7=Odds And Ends - Foot Track
TTITLE8=Soul Searchers - Blow Your Whistle
TTITLE9=Willie Bobo - Broasted Or Fried
TTITLE10=Eddie Fisher - Brain Strain
TTITLE11=Eddy Senay - Shake Down
TTITLE12=Curtis Mayfield - Move On Up
TTITLE13=The Meters - Rigor Mortis
TTITLE14=Creative Source - Who Is He And What Is He To You
TTITLE15=Timmy Thomas - Stone To The Bone
TTITLE16=Booker T. and The MG's - It's Your Thing
TTITLE17=The Moments - La La La
TTITLE18=Earth Wind And Fire - Sweet Back's Theme
EXTD=
EXTT0=
EXTT1=
EXTT2=
EXTT3=
EXTT4=
EXTT5=
EXTT6=
EXTT7=
EXTT8=
EXTT9=
EXTT10=
EXTT11=
EXTT12=
EXTT13=
EXTT14=
EXTT15=
EXTT16=
EXTT17=
EXTT18=
PLAYORDER=
